/* XPM */
static const char *glyph_dbl_plus[]={
"14 13 2 1",
". c None",
"# c #000000",
"....###.......",
"....###.......",
"....###.......",
".#########....",
".#########....",
".#########....",
"....###.......",
"....###...##..",
"....###...##..",
"........######",
"........######",
"..........##..",
"..........##.."};