/* XPM */
static const char *question[]={
"16 16 4 1",
". c None",
"# c #000000",
"a c #ffff00",
"b c #ffffff",
"................",
".......##.......",
"......#aa#......",
"......#aa#......",
".....#aaaa#.....",
".....#abba#.....",
"....#a####a#....",
"....#abbb#a#....",
"...#abb###aa#...",
"..#aabb##bbaa#..",
"..#abbbbbbbba#..",
".#aabbb##bbbaa#.",
".#abbbb##bbbba#.",
"#aaaaaaaaaaaaaa#",
"################",
"................"};
