/* XPM */
static const char *glyph_folder[]={
"14 13 2 1",
". c None",
"# c #000000",
"######........",
"######........",
"##..##########",
"##..##########",
"##..........##",
"##..........##",
"##...........#",
"##........##.#",
"##........##..",
"##......######",
"##......######",
"#######...##..",
"#########.##.#"};