/* XPM */
static const char *glyph_asterisk[]={
"14 13 2 1",
". c None",
"# c #000000",
"..............",
"..............",
"..............",
"..............",
"....##..##....",
".....####.....",
"...########...",
".....####.....",
"....##..##....",
"..............",
"..............",
"..............",
".............."};
