/* XPM */
static const char *glyph_down_arr[]={
"14 13 2 1",
". c None",
"# c #000000",
"..............",
"..............",
".....####.....",
".....####.....",
".....####.....",
".....####.....",
"..##########..",
"...########...",
"....######....",
".....####.....",
"......##......",
"..............",
".............."};