/* XPM */
static const char *aboutImg[]={
"96 48 16 1",
"d c #000000",
"g c #080707",
"i c #080809",
"j c #0b0c0c",
"k c #101010",
"e c #181819",
"h c #232424",
"c c #303031",
"f c #424344",
". c #5e6063",
"l c #870700",
"# c #898b8d",
"m c #ac2d00",
"a c #b6b8ba",
"n c #e86800",
"b c #ffffff",
".....#.#.#.#.#.#.##############a#a#a#a#a#a#aaaaaaaaaaaaaaaabaaabaaab#cddddddddddddcbbbbbbbbbbbbb",
"#.#.##############a###a###a###aaa#aaa#aaa#aaaaaaaaaaaaaaaababababacddddddddddddddddddcbbbbbbbbbb",
".#...eddddddef.###.##############a#a#a#a#dfa#aaaaaaaaaaaaaaaabaacddddddddddddddddddddddfabbbbbbb",
"#.#fgddddddddde.####a#a#a#a#a#a#aaaaaaaaae#aaaaabaaabaaabaaabaacdddddddddddddddddddddddddfbbbbbb",
"..hdddeeehedddd..#.#.h######.fhhhf.a#a#a#f#a#a##cccccccc.aaaaacdddddddhaabababbbacddddddddcbbbbb",
"#fdddd#.###edddf###fida####idddddddj.#aaa#aaa#hdddddddj.aaaaacdddddhaababbbbbbbbbabacddddddfbbbb",
"..dddd.dddddddd.##fddd.##.dddefffeddd.#a#a#a#.ddi.....#aaaa#hddddh#aabababbbbbbbabaaa#hdddddabbb",
"#.dddd#dddddddk.##fddd##akddf#a#a#fddeaaaaaaa.ddj...aaaabaacddddc#aababbbbbbbbbbbaaaa##.ddddfbbb",
"..dddd.eeeeddddf.#fddd.#.ddd.#####.ddd#a#a#a#afdddddj#aaaahddddh#aaaababafddddcaaaaa##.#eddddabb",
"#fdddd#f.f.jdddf##fddd###eddh#a###hddeaaa#aaa#a#.fhddjaaaaddddh#aababbbcdddddddcaaa##.#..ddddcbb",
"f.dddd.dddddddg.##fddd.##.gdddehedddi####a#a#.f.f.eddeaaaadddd#aabababcdddddddddh###.#..feddddbb",
".fdddd#ddddddk.###fddd#####hdddddddc##a#aaaaahddddddj#aabcddddaababbbadddddddddddh###..f.fddddbb",
"ffhfcc.fcccff....#.fcf.#.#.#..fff.#########a#.f.f.f##a#aadddddddddddcfddddca#cdddd.#..f.f.ddddbb",
"....#.#.#.#.#.#.##############a###a###a###aaa#aaa#aaa#aaacdddddddddddddddcbabadddd#..f.f.fddddbb",
"f.f.hedddddddddddddddddhc#chddddddddddddddhf#a#a#a#afcdddhkddddddddddddddaaaaadddd..f.f.f.ddddab",
"...kdddddddddddddddddddddhddddddddddddddddddhfaaaaahdddddddhcdddddddddddfabaacdddd.f.f.f.eddddbb",
"f.hdddddddddddddddddddddddddddddddddddddddddddha#afdddddddddfaaaaa#cdddc#aaacddddef.f.f.fddddcab",
"..eddddddddddddddddddddddddddddddddddddddddddddha#cdddddddddcaaaaaaaaaa#cdddddddef.f.f..eddddabb",
"f.ddddlllmlmlmlmmmmmmmmdddddmnmnmnmnnnnnnnddddddhaddddnnnddddaaaaaaaaa#cdddddddef.f.f.feddddcbab",
"..ddddllmlmlmmmmmmmmnmmdddddnmnmnnnnnnnnnnnndddddhddddnnnddddaaabaaabacdddddddef.f.f..edddddbbbb",
"f.ddddlllllmlmlmlmmmmmmdddddmnmnmnmnmnnnnnnnndddddddddnnndddda#aaaaaaadddddddef.f.f.fedddddcabab",
"..eddddddddddddddddmmmmdddddnmnddddddddddnnnnnddddddddnnndddd#aaaaaaaadddd...f.f.f..edddddfababb",
"f.hdddddddddddddddlmmmddddddmnmddddddddddddnnnndddddddnnndddda#a#aaaaadddd..f.f.f...ddddddcaabab",
"f..kdddddddddddddmmmmdddddddnmndddddddddddddnnndddddddnnnddddaaaaaaabadddd.f.f.f..##hddddddcbbbb",
"cff.hedddddddddddmlmddddddddmmmddddddddddddddnnnddddddnnndddda#a#a#aaaddddf.f.f....#.hddddddcaab",
"fff.......cdddddmlmlddddddddmmndddd####fhddddnnnddddddnnndddd#aaa#aaaaddddddddde..##aabacddddcab",
"ffcff.f.f.kddddllmlddddeddddmmmdddd###.##ddddnnnndddddnnndddda#a#a#a#adddddddddde##aaaabafddddcb",
"fffff....eddddllmldddddcddddnmmdddd######hddddnnndddddnnnddddaaaaaaaaadddddddddddh#ababbbafdddda",
"cfffcff.kdddddlllddddde.ddddmmmdddd#.#.#.fddddnnndddddnnndddda#a#a#a#ahdddddddddddhaabababaddddc",
"fffffffedddddlllddddde#.ddddmmmdddd#######ddddnnndddddnnndddd#aaa#aaa##hdcaaa#cddddcbabbbbbcdddd",
"ffcfffedddddllllddddk#..ddddmmmdddd###.###ddddmnndddddnnndddda#a#a#a#a#a#aaaaa#cddddababbbbadddd",
"ffffffkddddllllddddk..#.ddddmmmdddd#######ddddnnndddddnnnddddaaa#hddddc#aaaabaa#ddddbbbbbbbbdddd",
"cfffckddddlllldddddcf.f.ddddlmmdddd..#.#.#ddddmnmdddddnnnddddddddddddddh#a#aaaaaddddabbbababdddd",
"ffffkdddddlllddddde.....ddddmmmdddd.#####cddddnnndddddnnnddddddddddddddd##aaaaaaddddbbbbbbbadddd",
"ffchdddddllllddddef.f.f.ddddlmldddd..#.##hddddmnmdddddnnndddddddddddddddha#a#aa#ddddbbbbabaadddd",
"fffkddddlllldddde.......ddddmmmdddd.#.###ddddmnmddddddnnndddddddddefedddd#aaaaacddddbbbbbabcdddd",
"efkddddlllldddddh.f.f.f.ddddlmldddd....ceddddnmnddddddnnnddddff.f.f.fdddddh###hddddfababaaaddddc",
"hgdddddlllddddddddddddddddddmlmddddddddddddddmnmddddddnnndddddddddddddddddddddddddfabbbabaadddda",
"kdddddllldddddddddddddddddddlmldddddddddddddmnmdddddddmnnddddddddddddddddddddddddfababaaaahdddda",
"gddddlllldddddddddddddddddddmlmddddddddddddmnmndddddddnnndddddddddddddddddddddddfabbbabaa#ddddca",
"ddddllllddddddddddddddddddddlllddddddddddmmmmmddddddddmnmddddddddddddddddjdddddfababaaaa#hdddd#a",
"ddddllllllllllllllllllllddddllmlmlmlmmmmmmmmmdddddddddnnnnnnnnnnnnnnnnddddbbbbbbbbbabaa#hddddcaa",
"ddddllllllllllllllllllllddddlllllmlmlmlmmmmmdddddhddddmnmnmnnnnnnnnnnnddddabbbbbabaaa#hdddddhaaa",
"ddddllllllllllllllllllllddddllllmlmlmmmmmdddddddh#ddddnmnnnnnnnnnnnnnnddddbbbbbbbab#cddddddcaaaa",
"gdddddddddddddddddddddddddddddddddddddddddddddde.#eddddddddddddddddddddddfbbabab#cddddddddhaaaaa",
"kdddddddddddddddddddddddddddddddddddddddddddddh.##fddddddddddddddddddddddddddddddddddddddcaaaaaa",
"egddddddddddddddddddddddddddddddddddddddddddec...#.hdddddddddddddddddddddddddddddddddddh#aaaaaaa",
"hhkgddddddddddddddddddddkhckdddddddddddddef.#.#.#.##fhdddddddddddddddddddddddddddddddh#aaaaabaaa"};
