/* XPM */
static const char *exclaim[]={
"16 16 4 1",
". c None",
"# c #000000",
"a c #ff0000",
"b c #ffffff",
"................",
".......##.......",
"......#aa#......",
"......#aa#......",
".....#aaaa#.....",
".....#a##a#.....",
"....#aa##aa#....",
"....#ab##ba#....",
"...#abb##baa#...",
"..#aabb##bbaa#..",
"..#abbbbbbbba#..",
".#aabbb##bbbaa#.",
".#abbbb##bbbba#.",
"#aaaaaaaaaaaaaa#",
"################",
"................"};
